<?xml version="1.0" encoding="utf-8"?>
<!-- Generator: Adobe Illustrator 26.3.1, SVG Export Plug-In . SVG Version: 6.00 Build 0)  -->
<svg version="1.1" id="Layer_1" xmlns="http://www.w3.org/2000/svg" xmlns:xlink="http://www.w3.org/1999/xlink" x="0px" y="0px"
	 viewBox="0 0 525.4 186.3" style="enable-background:new 0 0 525.4 186.3;" xml:space="preserve">
<style type="text/css">
	.st0{fill:#10069F;}
</style>
<path class="st0" d="M229.6,47c1,3.4,4,5,7.7,5c4,0,6.7-2,6.7-5c0-2.3-1.7-3.7-5-4.4l-6.7-1.7c-5.7-1-10.1-4-10.1-10.4
	c0-7,6-12.1,14.1-12.1c8.7,0,14.1,4.7,15.1,11.4h-8.1c-0.7-2.7-3-4.7-7-4.7c-3.7,0-6,1.7-6,4.4c0,2.3,1.3,3.7,4.4,4.4l7,1.7
	c6.4,1.3,10.1,5,10.1,11.1c0,7.4-6,12.1-14.4,12.1s-14.8-4.4-16.1-11.7H229.6z"/>
<path class="st0" d="M265.2,68.5h-7.7V29.5h7.7v2.3c1.3-1.3,4-2.7,7-2.7c8.4,0,12.8,6.7,12.8,14.8c0,7.7-4.4,14.8-12.8,14.8
	c-3,0-5.7-1.7-7-3V68.5z M265.2,48.3c1,2,3,3.4,5.4,3.4c4,0,6.7-3.4,6.7-7.7c0-4.7-2.7-8.1-6.7-8.1c-2.3,0-4.4,1.3-5.4,3.4V48.3z"/>
<path class="st0" d="M294.1,26.2c-2.7,0-4.7-2-4.7-4.7c0-2.7,2-4.4,4.7-4.4c2.3,0,4.4,1.7,4.4,4.4C298.4,24.2,296.4,26.2,294.1,26.2
	z M297.8,58.1H290V29.5h7.7V58.1z"/>
<rect x="304.1" y="16.8" class="st0" width="8.1" height="41.3"/>
<path class="st0" d="M337,55.7c-1.3,1.3-4,3-7,3c-8.4,0-12.8-6.7-12.8-14.8s4.4-14.8,12.8-14.8c3,0,5.7,1.3,7,2.7V16.8h8.1v41.3H337
	V55.7z M337,39.3c-1-2-3-3.4-5.4-3.4c-4,0-6.7,3.4-6.7,8.1c0,4.4,2.7,7.7,6.7,7.7c2.3,0,4.4-1.3,5.4-3.4V39.3z"/>
<path class="st0" d="M376,48.7c-1,6-5.4,10.1-12.4,10.1c-8.1,0-13.8-6-13.8-14.8s5.7-14.8,13.8-14.8s12.8,5.7,12.8,13.8v2.7h-18.8
	c0.3,4,2.7,6.7,6,6.7c2.7,0,4.7-1.3,5.4-3.7H376z M357.5,40.6h11.1c0-2.7-2-5-5-5C360.5,35.6,358.2,37.3,357.5,40.6z"/>
<polygon class="st0" points="388.1,58.1 377.3,29.5 385.7,29.5 392.1,48.3 398.5,29.5 406.5,29.5 395.8,58.1 "/>
<path class="st0" d="M424.7,58.1v-1.7c-1,1-3.7,2-6.7,2c-5.7,0-10.7-3.4-10.7-9.1c0-5.4,5-9.1,11.1-9.1c2.3,0,5.4,0.7,6.4,1.7v-2
	c0-2.7-1.3-4.4-4.7-4.4c-2,0-3.4,1-4,2.7h-7.4c0.7-5.4,5.4-9.1,11.7-9.1c7.4,0,11.7,4,11.7,10.7v18.1H424.7z M424.7,48.3
	c-0.7-1.7-2.7-2.7-5-2.7c-2.7,0-5,1-5,3.7c0,2.3,2.3,3.4,5,3.4c2.3,0,4.4-1,5-2.3V48.3z"/>
<path class="st0" d="M438.4,29.5h7.7v2.7c1.7-1.7,4.4-3,7.7-3c6.4,0,10.1,4,10.1,10.4v18.5h-8.1V41.3c0-3-1.3-5-4.4-5
	c-2.3,0-4.7,1.3-5.4,3.7v18.1h-7.7V29.5z"/>
<path class="st0" d="M488.4,55.7c-1.3,1.3-4,3-7,3c-8.1,0-12.8-6.7-12.8-14.8s4.7-14.8,12.8-14.8c3,0,5.7,1.3,7,2.7V16.8h8.1v41.3
	h-8.1V55.7z M488.4,39.3c-1-2-3-3.4-5.4-3.4c-4,0-6.7,3.4-6.7,8.1c0,4.4,2.7,7.7,6.7,7.7c2.3,0,4.4-1.3,5.4-3.4V39.3z"/>
<path class="st0" d="M508.9,49.7c0.7,2,2.7,3,4.7,3c2.7,0,4-1,4-2.7c0-1.3-0.7-2-2.7-2.7l-5.7-1c-4.4-1-7.4-3.4-7.4-8.1
	c0-5.4,5-9.1,11.4-9.1c7,0,11.1,3.4,11.7,8.7h-7.4c-0.3-1.7-1.7-3-4.4-3c-2,0-3.7,1-3.7,2.7c0,1.3,0.7,1.7,2.3,2.3l6,1.3
	c4.7,1,7.4,3.7,7.4,8.1c0,5.7-5,9.4-11.4,9.4c-7,0-11.7-3.4-12.8-9.1H508.9z"/>
<polygon class="st0" points="221.2,75.9 254.5,75.9 254.5,82.9 242,82.9 242,114.5 233.6,114.5 233.6,82.9 221.2,82.9 "/>
<path class="st0" d="M278.3,105.4c-1,6-5.7,9.7-12.8,9.7c-8.1,0-13.4-6-13.4-14.8c0-8.4,5.4-14.8,13.4-14.8c8.4,0,12.8,6,12.8,14.1
	v2.3h-18.8c0.3,4.4,2.7,7,6,7c2.7,0,4.7-1.3,5.4-3.7H278.3z M259.8,97.4h10.7c0-3-1.7-5.4-5-5.4C262.5,92,260.5,94,259.8,97.4z"/>
<polygon class="st0" points="293.7,103.4 291.4,105.7 291.4,114.5 283.3,114.5 283.3,73.5 291.4,73.5 291.4,97 301.1,86.3 
	310.9,86.3 299.4,98.4 311.2,114.5 301.8,114.5 "/>
<path class="st0" d="M314.5,86.3h8.1V89c1.3-1.7,4.4-3.4,7.4-3.4c6.4,0,10.1,4.4,10.1,10.4v18.5h-7.7V97.7c0-2.7-1.7-4.7-4.7-4.7
	c-2.3,0-4.4,1.3-5,3.7v17.8h-8.1V86.3z"/>
<path class="st0" d="M350.1,82.6c-2.3,0-4.7-1.7-4.7-4.4c0-2.7,2.3-4.4,4.7-4.4c2.7,0,4.7,1.7,4.7,4.4
	C354.8,80.9,352.8,82.6,350.1,82.6z M354.2,114.5h-7.7V86.3h7.7V114.5z"/>
<path class="st0" d="M366.6,106.1c0.7,2,2.3,3.4,4.7,3.4c2.7,0,4-1,4-3c0-1-0.7-1.7-2.7-2.3l-5.7-1.3c-4.4-1-7.4-3-7.4-7.7
	c0-5.7,5-9.4,11.4-9.4c7,0,10.7,3.7,11.7,8.7h-7.4c-0.3-1.3-1.7-2.7-4.4-2.7c-2,0-3.7,1-3.7,2.7c0,1,0.7,1.7,2.3,2.3l6,1.3
	c4.7,1,7.4,3.7,7.4,8.1c0,5.7-5,9.1-11.4,9.1c-7,0-11.7-3-12.8-9.1H366.6z"/>
<polygon class="st0" points="398.1,103.4 396.1,105.7 396.1,114.5 388.1,114.5 388.1,73.5 396.1,73.5 396.1,97 405.9,86.3 
	415.3,86.3 403.8,98.4 415.9,114.5 406.5,114.5 "/>
<polygon class="st0" points="221.2,168.9 221.2,130.3 247.1,130.3 247.1,137.3 229.3,137.3 229.3,147 245.7,147 245.7,154.1 
	229.3,154.1 229.3,168.9 "/>
<path class="st0" d="M263.9,169.5c-8.1,0-13.8-6-13.8-14.8c0-8.4,5.7-14.8,13.8-14.8c8.4,0,13.8,6.4,13.8,14.8
	C277.6,163.5,272.3,169.5,263.9,169.5z M263.9,146.7c-4,0-6,3.4-6,8.1s2,8.4,6,8.4s6-3.7,6-8.4S267.9,146.7,263.9,146.7z"/>
<path class="st0" d="M299.8,148.4c-1-0.7-2.3-1-4-1c-2.7,0-4.7,1.7-5.4,4v17.5h-7.7v-28.2h7.7v3c1.3-2,3.7-3.7,6.4-3.7
	c1.3,0,2.7,0.3,3,0.7V148.4z"/>
<path class="st0" d="M328.6,159.8c-1,6-5.4,9.7-12.4,9.7c-8.1,0-13.8-6-13.8-14.8c0-8.4,5.7-14.8,13.8-14.8s12.8,6,12.8,14.1v2.3
	h-18.8c0.3,4.4,2.7,7,6,7c2.7,0,4.7-1.3,5.4-3.7H328.6z M310.2,151.7h11.1c0-3-1.7-5.4-5-5.4C313.2,146.4,310.9,148.4,310.2,151.7z"
	/>
<path class="st0" d="M334,140.7h8.1v2.7c1.3-1.7,4-3.4,7.4-3.4c6.4,0,10.1,4.4,10.1,10.4v18.5h-7.7v-16.8c0-2.7-1.7-4.7-4.7-4.7
	c-2.3,0-4.7,1.3-5,3.7v17.8H334V140.7z"/>
<path class="st0" d="M369.6,137c-2.3,0-4.7-1.7-4.7-4.4c0-2.7,2.3-4.4,4.7-4.4c2.3,0,4.7,1.7,4.7,4.4C374.3,135.3,372,137,369.6,137
	z M373.6,168.9h-8.1v-28.2h8.1V168.9z"/>
<path class="st0" d="M380,140.7h7.7v2.7c1.7-1.7,4.4-3.4,7.7-3.4c6.4,0,10.1,4.4,10.1,10.4v18.5h-8.1v-16.8c0-2.7-1.3-4.7-4.4-4.7
	c-2.3,0-4.7,1.3-5.4,3.7v17.8H380V140.7z"/>
<path class="st0" d="M429.7,140.7v2.3c-1-1.3-3.7-3-6.7-3c-8.4,0-13.1,6.7-13.1,14.1c0,7.7,4.7,14.4,13.1,14.4c3,0,5.7-1.7,6.7-3
	v1.7c0,4.4-2,6.7-6,6.7c-1.7,0-3-0.3-4-1.3v7c1.3,0.3,2.7,0.3,4,0.3c8.1,0,14.1-4.4,14.1-14.1v-25.2H429.7z M429.7,158.8
	c-0.7,1.7-2.7,3-5,3c-4.4,0-6.7-3-6.7-7.7c0-4.4,2.3-7.4,6.7-7.4c2.3,0,4.4,1.3,5,3V158.8z"/>
<path class="st0" d="M186.3,93.3c0-14.8-5.7-28.5-16.1-38.9c-6.7-6.7-14.8-11.7-24.2-14.1c-2.3-9.1-7-17.5-14.1-24.2
	c-21.1-21.5-56.1-21.5-77.5,0c-6.7,6.7-11.7,15.1-14.1,24.2c-9.1,2.3-17.5,7.4-24.2,14.1C5.7,64.8,0,78.6,0,93.3
	c0,14.4,5.7,28.5,16.1,38.9c6.7,6.7,15.1,11.4,24.2,14.1c2.3,9.1,7.4,17.1,14.1,23.8c10.4,10.4,24.2,16.1,38.9,16.1
	c14.4,0,28.2-5.7,38.6-16.1c7-6.7,11.7-14.8,14.1-23.8c9.4-2.7,17.5-7.4,24.2-14.1C180.6,121.9,186.3,107.8,186.3,93.3z M93.3,12.8
	c11.1,0,21.8,4.4,29.9,12.4c5.7,6,9.7,13.4,11.4,21.5c2.7,13.8-1.3,27.5-10.7,37.6L94,54.4C83.3,43.6,69.2,37.9,54.4,38.3
	c2-5,5-9.4,8.7-13.1C71.2,17.1,81.9,12.8,93.3,12.8z M93.3,114.8L71.5,93.3l21.8-21.8l21.5,21.8L93.3,114.8z M25.2,123.2
	c-8.1-8.1-12.4-18.8-12.4-29.9c0-11.4,4.4-22.2,12.4-29.9c5.7-6,13.4-10.1,21.5-11.7c2.7-0.3,5.7-0.7,8.4-0.7
	c10.7,0,21.1,4,29.2,11.7L54.4,92.7c-10.7,10.4-16.4,24.8-16.1,39.3C33.2,129.9,28.9,126.9,25.2,123.2z M123.2,161.5
	c-8.1,7.7-18.8,12.1-29.9,12.1c-11.4,0-22.2-4.4-30.2-12.1c-5.7-6-9.7-13.4-11.4-21.8c-2.7-13.4,1.3-27.5,10.7-37.3l26.2,25.8
	l0.3,0.3l3.4,3.7c10.7,10.4,24.8,16.1,39.6,16.1C129.9,153.1,126.9,157.4,123.2,161.5z M139.7,134.6L139.7,134.6
	c-13.4,2.7-27.5-1.3-37.6-10.7L131.9,94c10.7-10.7,16.4-24.8,16.1-39.6c5,2,9.4,5,13.1,9.1c8.1,7.7,12.4,18.5,12.4,29.9
	c0,11.1-4.4,21.8-12.4,29.9C155.4,128.9,147.7,132.9,139.7,134.6z"/>
</svg>
