<?xml version="1.0" encoding="utf-8"?>
<!-- Generator: Adobe Illustrator 27.1.1, SVG Export Plug-In . SVG Version: 6.00 Build 0)  -->
<svg version="1.1" id="Layer_1" xmlns="http://www.w3.org/2000/svg" xmlns:xlink="http://www.w3.org/1999/xlink" x="0px" y="0px"
	 viewBox="0 0 1013 702" style="enable-background:new 0 0 1013 702;" xml:space="preserve">
<style type="text/css">
	.st0{opacity:0.8;}
	.st1{opacity:0.5;}
	.st2{opacity:0.2;}
	.st3{opacity:0.6;}
	.st4{opacity:0.4;}
</style>
<g>
	<path d="M618,570.5c-66.6,0-129.3-26-176.4-73.1c-47.1-47.1-73.1-109.8-73.1-176.4c0-66.6,26-129.3,73.1-176.4
		C488.7,97.5,551.4,71.5,618,71.5s129.3,26,176.4,73.1c47.1,47.1,73.1,109.8,73.1,176.4c0,66.6-26,129.3-73.1,176.4
		C747.3,544.5,684.6,570.5,618,570.5z"/>
	<path d="M618,72c33.6,0,66.2,6.6,96.9,19.6c29.7,12.5,56.3,30.5,79.1,53.4c22.9,22.9,40.8,49.5,53.4,79.1
		c13,30.7,19.6,63.3,19.6,96.9s-6.6,66.2-19.6,96.9c-12.5,29.7-30.5,56.3-53.4,79.1c-22.9,22.9-49.5,40.8-79.1,53.4
		c-30.7,13-63.3,19.6-96.9,19.6s-66.2-6.6-96.9-19.6c-29.7-12.5-56.3-30.5-79.1-53.4c-22.9-22.9-40.8-49.5-53.4-79.1
		c-13-30.7-19.6-63.3-19.6-96.9s6.6-66.2,19.6-96.9c12.5-29.7,30.5-56.3,53.4-79.1c22.9-22.9,49.5-40.8,79.1-53.4
		C551.8,78.6,584.4,72,618,72 M618,71c-138.1,0-250,111.9-250,250s111.9,250,250,250s250-111.9,250-250S756.1,71,618,71L618,71z"/>
</g>
<g>
	<circle cx="128.5" cy="490.5" r="85"/>
	<path d="M128.5,406c46.6,0,84.5,37.9,84.5,84.5S175.1,575,128.5,575S44,537.1,44,490.5S81.9,406,128.5,406 M128.5,405
		C81.3,405,43,443.3,43,490.5S81.3,576,128.5,576s85.5-38.3,85.5-85.5S175.7,405,128.5,405L128.5,405z"/>
</g>
<g class="st0">
	<circle cx="403.5" cy="553.5" r="148"/>
	<path d="M403.5,406c39.4,0,76.4,15.3,104.3,43.2c27.9,27.9,43.2,64.9,43.2,104.3s-15.3,76.4-43.2,104.3
		c-27.9,27.9-64.9,43.2-104.3,43.2s-76.4-15.3-104.3-43.2c-27.9-27.9-43.2-64.9-43.2-104.3s15.3-76.4,43.2-104.3
		C327.1,421.3,364.1,406,403.5,406 M403.5,405c-82,0-148.5,66.5-148.5,148.5S321.5,702,403.5,702S552,635.5,552,553.5
		S485.5,405,403.5,405L403.5,405z"/>
</g>
<g class="st1">
	<circle cx="851.5" cy="461.5" r="134"/>
	<path d="M851.5,328c35.7,0,69.2,13.9,94.4,39.1c25.2,25.2,39.1,58.7,39.1,94.4s-13.9,69.2-39.1,94.4
		c-25.2,25.2-58.7,39.1-94.4,39.1s-69.2-13.9-94.4-39.1c-25.2-25.2-39.1-58.7-39.1-94.4s13.9-69.2,39.1-94.4
		C782.3,341.9,815.8,328,851.5,328 M851.5,327C777.2,327,717,387.2,717,461.5S777.2,596,851.5,596S986,535.8,986,461.5
		S925.8,327,851.5,327L851.5,327z"/>
</g>
<g class="st2">
	<circle cx="825" cy="42.7" r="42.2"/>
	<path d="M825,1c23,0,41.7,18.7,41.7,41.7S848,84.4,825,84.4c-23,0-41.7-18.7-41.7-41.7S802,1,825,1 M825,0
		c-23.6,0-42.7,19.1-42.7,42.7s19.1,42.7,42.7,42.7c23.6,0,42.7-19.1,42.7-42.7S848.6,0,825,0L825,0z"/>
</g>
<g>
	<circle cx="380.8" cy="221.9" r="42.2"/>
	<path d="M380.8,180.2c23,0,41.7,18.7,41.7,41.7c0,23-18.7,41.7-41.7,41.7c-23,0-41.7-18.7-41.7-41.7
		C339,198.9,357.8,180.2,380.8,180.2 M380.8,179.2c-23.6,0-42.7,19.1-42.7,42.7s19.1,42.7,42.7,42.7c23.6,0,42.7-19.1,42.7-42.7
		S404.4,179.2,380.8,179.2L380.8,179.2z"/>
</g>
<g>
	<circle cx="465.8" cy="613.9" r="42.2"/>
	<path d="M465.8,572.2c23,0,41.7,18.7,41.7,41.7s-18.7,41.7-41.7,41.7c-23,0-41.7-18.7-41.7-41.7S442.8,572.2,465.8,572.2
		 M465.8,571.2c-23.6,0-42.7,19.1-42.7,42.7s19.1,42.7,42.7,42.7c23.6,0,42.7-19.1,42.7-42.7S489.4,571.2,465.8,571.2L465.8,571.2z"
		/>
</g>
<g class="st2">
	<circle cx="21.4" cy="377.3" r="20.8"/>
	<path d="M21.4,357c11.2,0,20.3,9.1,20.3,20.3s-9.1,20.3-20.3,20.3c-11.2,0-20.3-9.1-20.3-20.3S10.2,357,21.4,357 M21.4,356
		C9.6,356,0,365.6,0,377.3s9.6,21.3,21.3,21.3c11.8,0,21.3-9.6,21.3-21.3S33.2,356,21.4,356L21.4,356z"/>
</g>
<g class="st3">
	<path d="M192.8,446.8c-11.5,0-20.8-9.3-20.8-20.8c0-11.5,9.3-20.8,20.8-20.8c11.5,0,20.8,9.3,20.8,20.8
		C213.6,437.4,204.3,446.8,192.8,446.8z"/>
	<path d="M192.8,405.6c11.2,0,20.3,9.1,20.3,20.3s-9.1,20.3-20.3,20.3s-20.3-9.1-20.3-20.3S181.6,405.6,192.8,405.6 M192.8,404.6
		c-11.8,0-21.3,9.6-21.3,21.3c0,11.8,9.6,21.3,21.3,21.3s21.3-9.6,21.3-21.3C214.1,414.2,204.6,404.6,192.8,404.6L192.8,404.6z"/>
</g>
<g class="st4">
	<path d="M389.8,127.8c-11.5,0-20.8-9.3-20.8-20.8s9.3-20.8,20.8-20.8c11.5,0,20.8,9.3,20.8,20.8S401.3,127.8,389.8,127.8z"/>
	<path d="M389.8,86.6c11.2,0,20.3,9.1,20.3,20.3s-9.1,20.3-20.3,20.3s-20.3-9.1-20.3-20.3S378.6,86.6,389.8,86.6 M389.8,85.6
		c-11.8,0-21.3,9.6-21.3,21.3c0,11.8,9.6,21.3,21.3,21.3s21.3-9.6,21.3-21.3C411.1,95.2,401.6,85.6,389.8,85.6L389.8,85.6z"/>
</g>
<g class="st3">
	<path d="M192.8,655.8c-11.5,0-20.8-9.3-20.8-20.8c0-11.5,9.3-20.8,20.8-20.8c11.5,0,20.8,9.3,20.8,20.8
		C213.6,646.4,204.3,655.8,192.8,655.8z"/>
	<path d="M192.8,614.6c11.2,0,20.3,9.1,20.3,20.3s-9.1,20.3-20.3,20.3s-20.3-9.1-20.3-20.3S181.6,614.6,192.8,614.6 M192.8,613.6
		c-11.8,0-21.3,9.6-21.3,21.3c0,11.8,9.6,21.3,21.3,21.3s21.3-9.6,21.3-21.3C214.1,623.2,204.6,613.6,192.8,613.6L192.8,613.6z"/>
</g>
<g>
	<path d="M991.8,591.8c-11.5,0-20.8-9.3-20.8-20.8c0-11.5,9.3-20.8,20.8-20.8c11.5,0,20.8,9.3,20.8,20.8
		C1012.6,582.4,1003.3,591.8,991.8,591.8z"/>
	<path d="M991.8,550.6c11.2,0,20.3,9.1,20.3,20.3c0,11.2-9.1,20.3-20.3,20.3s-20.3-9.1-20.3-20.3
		C971.4,559.7,980.6,550.6,991.8,550.6 M991.8,549.6c-11.8,0-21.3,9.6-21.3,21.3c0,11.8,9.6,21.3,21.3,21.3s21.3-9.6,21.3-21.3
		C1013.1,559.2,1003.6,549.6,991.8,549.6L991.8,549.6z"/>
</g>
</svg>
