<?xml version="1.0" encoding="utf-8"?>
<!-- Generator: Adobe Illustrator 27.1.1, SVG Export Plug-In . SVG Version: 6.00 Build 0)  -->
<svg version="1.1" xmlns="http://www.w3.org/2000/svg" xmlns:xlink="http://www.w3.org/1999/xlink" x="0px" y="0px"
	 viewBox="0 0 1920 465" style="enable-background:new 0 0 1920 465;" xml:space="preserve">
<style type="text/css">
	.st0{stroke:#FFFFFF;stroke-miterlimit:10;}
	.st1{opacity:0.2;stroke:#FFFFFF;stroke-miterlimit:10;}
</style>
<g id="Layer_1">
	<path class="st0" d="M0,227c17.4-5.4,70.5-126.4,135.3-149.5c126.2-38,192.4,40.3,264.2,87c126,82,146,61,152,29
		c-57-73,170-66,278-4s189,159,301,145s187.9-151.3,319.4-97.7s470.1-32.6,470.1-32.6V465H0V227z"/>
</g>
<g id="Layer_2">
	<path class="st1" d="M-0.5,227.5c17.4-5.4,10-264,135.3-223C240.5,170.5,355.2,90.3,427,137c126,82,153,12.5,209.2-43.8
		s225.5,5,310.5,127.5c75,105.5,145.8,178.2,183.2,141.8s390.5-288,347.5-151s56.6,14.3,191.6-16c121.6-27.3,250.4,9.2,250.4,9.2
		v260.8H-0.5V227.5z"/>
</g>
</svg>
