<?xml version="1.0" encoding="utf-8"?>
<!-- Generator: Adobe Illustrator 27.1.1, SVG Export Plug-In . SVG Version: 6.00 Build 0)  -->
<svg version="1.1" xmlns="http://www.w3.org/2000/svg" xmlns:xlink="http://www.w3.org/1999/xlink" x="0px" y="0px"
	 viewBox="0 0 1920 901" style="enable-background:new 0 0 1920 901;" xml:space="preserve">
<style type="text/css">
	.st0{stroke:#FFFFFF;stroke-miterlimit:10;}
	.st1{opacity:0.2;stroke:#FFFFFF;stroke-miterlimit:10;}
</style>
<g id="Layer_1">
	<path class="st0" d="M0.5,208.5c22.1,17.6,281-135,399.5-53c51.5,56.5,101,45.4,152-8c104-93.5,367.5,111,579-14
		c112-31.2,297.7,30.3,429.3,149.8s360.2,37.2,360.2,37.2V901H0.5V208.5z"/>
</g>
<g id="Layer_2">
	<path class="st1" d="M0.5,30.5c17.4-9.8,108.1-66.9,233.4,7.9c125,54.7,300.6-65.1,372.4,20.1c126,149.4,430-26.5,575.1-31.7
		s353.8,264.5,488.8,209.2c121.6-49.8,250.4-156.7,250.4-156.7V819H0.5V30.5z"/>
</g>
</svg>
