<?xml version="1.0" encoding="utf-8"?>
<!-- Generator: Adobe Illustrator 27.1.1, SVG Export Plug-In . SVG Version: 6.00 Build 0)  -->
<svg version="1.1" id="Layer_1" xmlns="http://www.w3.org/2000/svg" xmlns:xlink="http://www.w3.org/1999/xlink" x="0px" y="0px"
	 viewBox="0 0 1920 222" style="enable-background:new 0 0 1920 222;" xml:space="preserve">
<style type="text/css">
	.st0{stroke:#FFFFFF;stroke-miterlimit:10;}
	.st1{opacity:0.6;stroke:#FFFFFF;stroke-miterlimit:10;enable-background:new    ;}
	.st2{opacity:0.2;stroke:#FFFFFF;stroke-miterlimit:10;enable-background:new    ;}
	.st3{opacity:0.5;stroke:#FFFFFF;stroke-miterlimit:10;enable-background:new    ;}
</style>
<g id="Layer_4">
	<path class="st0" d="M-105.6,86.5l-33.3-298.7l2208.4-245.9l27.9,250.4c0,0-266.9-6.2-412.5,62.2S1328.6-26.8,1198.3-25.9
		C949-52.8,655.8,69.2,531.6,42.2c-61.2-16.5-118.7-15-175.2,16C224.1,108.7-81.1,76.1-105.6,86.5L-105.6,86.5z"/>
</g>
<g id="Layer_1_00000055705982041697652530000010886620204856837509_">
	<path class="st1" d="M1920,105.2c-22.1-7.6-281,58.6-399.5,23c-51.5-24.5-101-19.7-152,3.5c-104,40.6-367.5-48.2-579,6.1
		c-112,13.5-297.7-13.1-429.3-65S0,56.6,0,56.6l0-251.9h1920V105.2z"/>
</g>
<g id="Layer_2_00000032631182543908651430000006140331748743098793_">
	<path class="st2" d="M1997.4-183.5l15.4,236.1c0,0-140.4-51.1-271.1-70.7c-145.1-21.7-356.3,144.3-510.3,151.3
		s-482.5-70.7-610.5,22c-73,52.8-263.4-2.3-393.9,37.1C97,242.9-1.2,217.2-20,212.9L-35.4-23.3"/>
</g>
<g id="Layer_3">
	<path class="st3" d="M2114.4-262.5L2132,5c0,0-157-76.7-302.4-107.6c-161.5-34.3-392.1,200.2-562.8,207.2
		c-170.7,7-537-111.9-677,18.8c-79.8,74.5-292.3-8.8-436.2,45.1C10.5,238.7-99,199.6-120,193l-18.8-286.1"/>
</g>
</svg>
