<?xml version="1.0" encoding="utf-8"?>
<!-- Generator: Adobe Illustrator 27.1.1, SVG Export Plug-In . SVG Version: 6.00 Build 0)  -->
<svg version="1.1" xmlns="http://www.w3.org/2000/svg" xmlns:xlink="http://www.w3.org/1999/xlink" x="0px" y="0px"
	 viewBox="0 0 1920 222" style="enable-background:new 0 0 1920 222;" xml:space="preserve">
<style type="text/css">
	.st0{stroke:#FFFFFF;stroke-miterlimit:10;}
	.st1{opacity:0.2;stroke:#FFFFFF;stroke-miterlimit:10;}
</style>
<g id="Layer_1">
	<path class="st0" d="M0.5,108c22.1,7.6,281-58.6,399.5-23c51.5,24.5,101,19.7,152-3.5c104-40.6,367.5,48.2,579-6.1
		c112-13.5,297.7,13.1,429.3,65s360.2,16.2,360.2,16.2v251.9H0.5V108z"/>
</g>
<g id="Layer_2">
	<path class="st1" d="M-0.5,16.8c17.4-5.5,108.1-37.6,233.4,4.4c125,30.8,300.6-36.6,372.4,11.3c126,84.1,430-14.9,575.1-17.9
		s353.8,148.8,488.8,117.7c121.6-28,250.4-88.2,250.4-88.2v416.3H-0.5V16.8z"/>
</g>
</svg>
