<?xml version="1.0" encoding="utf-8"?>
<!-- Generator: Adobe Illustrator 27.1.1, SVG Export Plug-In . SVG Version: 6.00 Build 0) -->
<svg version="1.1" id="Layer_1" xmlns="http://www.w3.org/2000/svg" xmlns:xlink="http://www.w3.org/1999/xlink" x="0px" y="0px" viewBox="0 0 1920 182.5" style="enable-background:new 0 0 1920 182.5;" xml:space="preserve">
	<style type="text/css">
		.st0{stroke:#FFFFFF;stroke-miterlimit:10;}
		.st1{opacity:0.6;stroke:#FFFFFF;stroke-miterlimit:10;enable-background:new    ;}
		.st2{opacity:0.2;stroke:#FFFFFF;stroke-miterlimit:10;enable-background:new    ;}
		.st3{opacity:0.5;stroke:#FFFFFF;stroke-miterlimit:10;enable-background:new    ;}
		
		.pulse1 {
		transform-origin: 50% 50%;
		animation: pulse1 8000ms ease-in-out infinite;
		}
		
		@keyframes pulse1 {
		0% {
		transform: scale(100%, 100%);
		}
		50% {
		transform: scale(110%, 110%);
		}
		100% {
		transform: scale(100%, 100%);
		}
		}
		
		.pulse2 {
		transform-origin: 50% 50%;
		animation: pulse2 9000ms ease-in-out infinite;
		}
		
		@keyframes pulse2 {
		0% {
		transform: scale(100%, 100%);
		}
		50% {
		transform: scale(115%, 115%);
		}
		100% {
		transform: scale(100%, 100%);
		}
		}
		
		.pulse3 {
		transform-origin: 50% 50%;
		animation: pulse3 10000ms ease-in-out infinite;
		}
		
		@keyframes pulse3 {
		0% {
		transform: scale(100%, 100%);
		}
		50% {
		transform: scale(120%, 120%);
		}
		100% {
		transform: scale(100%, 100%);
		}
		}
		
		.pulse4 {
		transform-origin: 50% 50%;
		animation: pulse4 9000ms ease-in-out infinite;
		}
		
		@keyframes pulse4 {
		0% {
		transform: scale(100%, 100%);
		}
		50% {
		transform: scale(110%, 110%);
		}
		100% {
		transform: scale(100%, 100%);
		}
		}
	</style>
	<g id="Layer_4" class="pulse4">
		<path class="st0" d="M-94.4,45.8l-33.3-298.7l2208.4-245.9l27.9,250.4c0,0-266.9-6.2-412.5,62.2S1339.7-67.5,1209.4-66.6
		C960.1-93.5,666.9,28.5,542.8,1.5c-61.2-16.5-118.7-15-175.2,16C235.3,68-69.9,35.4-94.4,45.8L-94.4,45.8z" />
	</g>
	<g id="Layer_1_00000055705982041697652530000010886620204856837509_"  class="pulse3">
		<path class="st1" d="M1931.2,64.4c-22.1-7.6-281,58.6-399.5,23c-51.5-24.5-101-19.7-152,3.5c-104,40.6-367.5-48.2-579,6.1
		c-112,13.5-297.7-13.1-429.3-65S11.2,15.8,11.2,15.8v-251.9h1920V64.4z" />
	</g>
	<g id="Layer_2_00000032631182543908651430000006140331748743098793_"  class="pulse2">
		<path class="st2" d="M2008.5-224.2L2024,11.9c0,0-140.4-51.1-271.1-70.7c-145.1-21.7-356.3,144.3-510.3,151.3
		c-153.9,7.1-482.5-70.7-610.5,22c-73,52.8-263.4-2.3-393.9,37.1c-130,50.6-228.2,24.8-247,20.6L-24.2-64" />
	</g>
	<g id="Layer_3"  class="pulse1">
		<path class="st3" d="M2125.6-303.2l17.6,267.5c0,0-157-76.7-302.4-107.6C1679.3-177.5,1448.7,57,1278,64s-537-111.9-677,18.8
		c-79.8,74.5-292.3-8.8-436.2,45.1c-143.1,70.2-252.6,31-273.6,24.4l-18.8-286.1" />
	</g>
</svg>
